<svg width="102" height="44" viewBox="0 0 102 44" fill="none" xmlns="http://www.w3.org/2000/svg">
<g filter="url(#filter0_d_35_22)">
<path d="M31.8672 35H26.2656V19.5312H10.4688V35H4.84375V0.734375H10.4688V14.75H26.2656V0.734375H31.8672V35ZM55.5391 5.02344C53.8984 5.02344 52.4297 5.32031 51.1328 5.91406C49.8516 6.50781 48.7656 7.36719 47.875 8.49219C46.9844 9.60156 46.3047 10.9531 45.8359 12.5469C45.3672 14.125 45.1328 15.9062 45.1328 17.8906C45.1328 20.5469 45.5078 22.8359 46.2578 24.7578C47.0078 26.6641 48.1484 28.1328 49.6797 29.1641C51.2109 30.1797 53.1484 30.6875 55.4922 30.6875C56.9453 30.6875 58.3594 30.5469 59.7344 30.2656C61.1094 29.9844 62.5312 29.6016 64 29.1172V33.8984C62.6094 34.4453 61.2031 34.8438 59.7812 35.0938C58.3594 35.3438 56.7188 35.4688 54.8594 35.4688C51.3594 35.4688 48.4531 34.7422 46.1406 33.2891C43.8438 31.8359 42.125 29.7891 40.9844 27.1484C39.8594 24.5078 39.2969 21.4141 39.2969 17.8672C39.2969 15.2734 39.6562 12.8984 40.375 10.7422C41.0938 8.58594 42.1406 6.72656 43.5156 5.16406C44.8906 3.58594 46.5859 2.375 48.6016 1.53125C50.6328 0.671875 52.9531 0.242188 55.5625 0.242188C57.2812 0.242188 58.9688 0.4375 60.625 0.828125C62.2969 1.20312 63.8438 1.74219 65.2656 2.44531L63.2969 7.08594C62.1094 6.52344 60.8672 6.03906 59.5703 5.63281C58.2734 5.22656 56.9297 5.02344 55.5391 5.02344ZM97.6094 35H91.0703L76.9844 17.6094V35H71.3594V0.734375H76.9844V17.3281L90.8125 0.734375H96.9531L83.125 17.2812L97.6094 35Z" fill="#888B8D"/>
<path d="M31.8672 35V37H33.8672V35H31.8672ZM26.2656 35H24.2656V37H26.2656V35ZM26.2656 19.5312H28.2656V17.5312H26.2656V19.5312ZM10.4688 19.5312V17.5312H8.46875V19.5312H10.4688ZM10.4688 35V37H12.4688V35H10.4688ZM4.84375 35H2.84375V37H4.84375V35ZM4.84375 0.734375V-1.26562H2.84375V0.734375H4.84375ZM10.4688 0.734375H12.4688V-1.26562H10.4688V0.734375ZM10.4688 14.75H8.46875V16.75H10.4688V14.75ZM26.2656 14.75V16.75H28.2656V14.75H26.2656ZM26.2656 0.734375V-1.26562H24.2656V0.734375H26.2656ZM31.8672 0.734375H33.8672V-1.26562H31.8672V0.734375ZM31.8672 33H26.2656V37H31.8672V33ZM28.2656 35V19.5312H24.2656V35H28.2656ZM26.2656 17.5312H10.4688V21.5312H26.2656V17.5312ZM8.46875 19.5312V35H12.4688V19.5312H8.46875ZM10.4688 33H4.84375V37H10.4688V33ZM6.84375 35V0.734375H2.84375V35H6.84375ZM4.84375 2.73438H10.4688V-1.26562H4.84375V2.73438ZM8.46875 0.734375V14.75H12.4688V0.734375H8.46875ZM10.4688 16.75H26.2656V12.75H10.4688V16.75ZM28.2656 14.75V0.734375H24.2656V14.75H28.2656ZM26.2656 2.73438H31.8672V-1.26562H26.2656V2.73438ZM29.8672 0.734375V35H33.8672V0.734375H29.8672ZM51.1328 5.91406L50.3002 4.09557L50.2919 4.09944L51.1328 5.91406ZM47.875 8.49219L49.4346 9.74428L49.4431 9.73359L47.875 8.49219ZM45.8359 12.5469L47.7532 13.1163L47.7547 13.1112L45.8359 12.5469ZM46.2578 24.7578L44.3947 25.4849L44.3967 25.4901L46.2578 24.7578ZM49.6797 29.1641L48.5625 30.823L48.5742 30.8308L49.6797 29.1641ZM64 29.1172H66V26.3517L63.3736 27.2178L64 29.1172ZM64 33.8984L64.732 35.7597L66 35.261V33.8984H64ZM46.1406 33.2891L45.0713 34.9792L45.0765 34.9825L46.1406 33.2891ZM40.9844 27.1484L39.1444 27.9323L39.1483 27.9415L40.9844 27.1484ZM43.5156 5.16406L45.0171 6.48533L45.0235 6.4779L43.5156 5.16406ZM48.6016 1.53125L49.3738 3.37615L49.3808 3.37318L48.6016 1.53125ZM60.625 0.828125L60.1659 2.77472L60.1766 2.77724L60.1873 2.77964L60.625 0.828125ZM65.2656 2.44531L67.1068 3.22641L67.8438 1.48908L66.1522 0.652535L65.2656 2.44531ZM63.2969 7.08594L62.4407 8.89341L64.3241 9.78556L65.138 7.86704L63.2969 7.08594ZM55.5391 3.02344C53.6541 3.02344 51.8949 3.36552 50.3003 4.09559L51.9654 7.73254C52.9645 7.2751 54.1427 7.02344 55.5391 7.02344V3.02344ZM50.2919 4.09944C48.722 4.82693 47.3885 5.88456 46.3069 7.25078L49.4431 9.73359C50.1427 8.84982 50.9811 8.18869 51.9737 7.72868L50.2919 4.09944ZM46.3154 7.24012C45.2363 8.58427 44.4474 10.1797 43.9172 11.9825L47.7547 13.1112C48.1619 11.7265 48.7324 10.6189 49.4346 9.74425L46.3154 7.24012ZM43.9187 11.9774C43.3852 13.7737 43.1328 15.7516 43.1328 17.8906H47.1328C47.1328 16.0609 47.3492 14.4763 47.7532 13.1163L43.9187 11.9774ZM43.1328 17.8906C43.1328 20.7274 43.5324 23.2753 44.3947 25.4849L48.121 24.0307C47.4833 22.3966 47.1328 20.3663 47.1328 17.8906H43.1328ZM44.3967 25.4901C45.2781 27.7303 46.6586 29.5408 48.5625 30.8229L50.7969 27.5052C49.6382 26.7249 48.7375 25.5978 48.1189 24.0256L44.3967 25.4901ZM48.5742 30.8308C50.5127 32.1165 52.863 32.6875 55.4922 32.6875V28.6875C53.4339 28.6875 51.9091 28.2428 50.7852 27.4974L48.5742 30.8308ZM55.4922 32.6875C57.0752 32.6875 58.6237 32.5342 60.1352 32.2251L59.3336 28.3062C58.0951 28.5595 56.8154 28.6875 55.4922 28.6875V32.6875ZM60.1352 32.2251C61.5937 31.9267 63.091 31.5229 64.6264 31.0166L63.3736 27.2178C61.9715 27.6802 60.625 28.042 59.3336 28.3062L60.1352 32.2251ZM62 29.1172V33.8984H66V29.1172H62ZM63.268 32.0372C61.9976 32.5368 60.7204 32.8979 59.4349 33.124L60.1276 37.0635C61.6858 36.7896 63.2211 36.3538 64.732 35.7597L63.268 32.0372ZM59.4349 33.124C58.1545 33.3491 56.6339 33.4688 54.8594 33.4688V37.4688C56.8036 37.4688 58.5642 37.3384 60.1276 37.0635L59.4349 33.124ZM54.8594 33.4688C51.6312 33.4688 49.1201 32.7992 47.2047 31.5956L45.0765 34.9825C47.7861 36.6851 51.0876 37.4688 54.8594 37.4688V33.4688ZM47.2099 31.5989C45.2734 30.3737 43.8113 28.6494 42.8204 26.3554L39.1483 27.9415C40.4387 30.9288 42.4141 33.2981 45.0713 34.9792L47.2099 31.5989ZM42.8244 26.3645C41.8267 24.0228 41.2969 21.2063 41.2969 17.8672H37.2969C37.2969 21.6218 37.8921 24.9928 39.1444 27.9323L42.8244 26.3645ZM41.2969 17.8672C41.2969 15.4585 41.6304 13.3004 42.2724 11.3746L38.4776 10.1097C37.6821 12.4964 37.2969 15.0883 37.2969 17.8672H41.2969ZM42.2724 11.3746C42.9144 9.44864 43.8344 7.8292 45.0171 6.48532L42.0142 3.84281C40.4468 5.62393 39.2731 7.72323 38.4776 10.1097L42.2724 11.3746ZM45.0235 6.4779C46.1883 5.14103 47.6281 4.10691 49.3738 3.37613L47.8293 -0.313632C45.5438 0.643089 43.5929 2.03084 42.0077 3.85023L45.0235 6.4779ZM49.3808 3.37318C51.1247 2.6354 53.1726 2.24219 55.5625 2.24219V-1.75781C52.7336 -1.75781 50.1409 -1.29165 47.8223 -0.310685L49.3808 3.37318ZM55.5625 2.24219C57.1282 2.24219 58.6616 2.41993 60.1659 2.77472L61.0841 -1.11847C59.2759 -1.54493 57.4343 -1.75781 55.5625 -1.75781V2.24219ZM60.1873 2.77964C61.7161 3.12255 63.1109 3.61095 64.3791 4.23809L66.1522 0.652535C64.5766 -0.126576 62.8776 -0.716301 61.0627 -1.12339L60.1873 2.77964ZM63.4245 1.66421L61.4557 6.30484L65.138 7.86704L67.1068 3.22641L63.4245 1.66421ZM64.153 5.27846C62.8791 4.675 61.5504 4.15724 60.1682 3.72426L58.9725 7.54136C60.184 7.92088 61.3397 8.37187 62.4407 8.89341L64.153 5.27846ZM60.1682 3.72426C58.6733 3.25599 57.1277 3.02344 55.5391 3.02344V7.02344C56.7317 7.02344 57.8736 7.19714 58.9725 7.54136L60.1682 3.72426ZM97.6094 35V37H101.828L99.1578 33.7342L97.6094 35ZM91.0703 35L89.5162 36.2588L90.1165 37H91.0703V35ZM76.9844 17.6094L78.5385 16.3506L74.9844 11.9626V17.6094H76.9844ZM76.9844 35V37H78.9844V35H76.9844ZM71.3594 35H69.3594V37H71.3594V35ZM71.3594 0.734375V-1.26562H69.3594V0.734375H71.3594ZM76.9844 0.734375H78.9844V-1.26562H76.9844V0.734375ZM76.9844 17.3281H74.9844V22.8522L78.5208 18.6085L76.9844 17.3281ZM90.8125 0.734375V-1.26562H89.8758L89.2761 -0.545994L90.8125 0.734375ZM96.9531 0.734375L98.4878 2.01688L101.231 -1.26562H96.9531V0.734375ZM83.125 17.2812L81.5903 15.9987L80.5303 17.2672L81.5765 18.5471L83.125 17.2812ZM97.6094 33H91.0703V37H97.6094V33ZM92.6245 33.7412L78.5385 16.3506L75.4302 18.8682L89.5162 36.2588L92.6245 33.7412ZM74.9844 17.6094V35H78.9844V17.6094H74.9844ZM76.9844 33H71.3594V37H76.9844V33ZM73.3594 35V0.734375H69.3594V35H73.3594ZM71.3594 2.73438H76.9844V-1.26562H71.3594V2.73438ZM74.9844 0.734375V17.3281H78.9844V0.734375H74.9844ZM78.5208 18.6085L92.3489 2.01474L89.2761 -0.545994L75.4479 16.0478L78.5208 18.6085ZM90.8125 2.73438H96.9531V-1.26562H90.8125V2.73438ZM95.4185 -0.548131L81.5903 15.9987L84.6597 18.5638L98.4878 2.01688L95.4185 -0.548131ZM81.5765 18.5471L96.0609 36.2658L99.1578 33.7342L84.6735 16.0154L81.5765 18.5471Z" fill="#2E2E2E"/>
</g>
<defs>
<filter id="filter0_d_35_22" x="0.84375" y="0.242188" width="100.766" height="43.2266" filterUnits="userSpaceOnUse" color-interpolation-filters="sRGB">
<feFlood flood-opacity="0" result="BackgroundImageFix"/>
<feColorMatrix in="SourceAlpha" type="matrix" values="0 0 0 0 0 0 0 0 0 0 0 0 0 0 0 0 0 0 127 0" result="hardAlpha"/>
<feOffset dy="4"/>
<feGaussianBlur stdDeviation="2"/>
<feComposite in2="hardAlpha" operator="out"/>
<feColorMatrix type="matrix" values="0 0 0 0 0.104167 0 0 0 0 0.101997 0 0 0 0 0.103689 0 0 0 0.5 0"/>
<feBlend mode="normal" in2="BackgroundImageFix" result="effect1_dropShadow_35_22"/>
<feBlend mode="normal" in="SourceGraphic" in2="effect1_dropShadow_35_22" result="shape"/>
</filter>
</defs>
</svg>
